# xmcd
#
# Track frame offsets: 
#        150
#        12118
#        23104
#        34092
#        46832
#        59012
#        70480
#        83153
#        95309
#        108529
#        122214
#        139833
#        152905
#        165967
#        177516
#        189545
#        200983
#        211572
#        224106
#        237921
#        251003
#        262894
#        277159
#        289567
#
# Disc length: 4084 seconds
#
# Revision: 1
# Processed by: cddbd v1.5.2PL0 Copyright (c) Steve Scherf et al.
# Submitted via: ExactAudioCopyFreeDBPlugin 1.0
#
DISCID=680ff218
DTITLE=Conway Twitty and Loretta Lynn - The Definitive Collection
DYEAR=2005
DGENRE=Country
TTITLE0=After the Fire Is Gone
TTITLE1=Don't Tell Me You're Sorry
TTITLE2=Lead Me On
TTITLE3=You're the Reason (I Don't Sleep at Night)
TTITLE4=Easy Loving
TTITLE5=Louisiana Woman, Mississippi Man
TTITLE6=You Lay So Easy on My Mind
TTITLE7=As Soon as I Hang Up the Phone
TTITLE8=Spiders and Snakes
TTITLE9=Feelins'
TTITLE10=Back Home Again
TTITLE11=Letter
TTITLE12=I Can't Love You Enough
TTITLE13=Hey, Good Lookin'
TTITLE14=From Seven Till Ten
TTITLE15=You're the Reason Our Kids Are Ugly
TTITLE16=How High Can You Build a Fire
TTITLE17=You Know Just What I'd Do
TTITLE18=Sadness of It All
TTITLE19=It's True Love
TTITLE20=Lovin' What Your Lovin' Does to Me
TTITLE21=I Still Believe in Waltzes
TTITLE22=Oh Honey-Oh Babe
TTITLE23=Making Believe
EXTD=
EXTT0=
EXTT1=
EXTT2=
EXTT3=
EXTT4=
EXTT5=
EXTT6=
EXTT7=
EXTT8=
EXTT9=
EXTT10=
EXTT11=
EXTT12=
EXTT13=
EXTT14=
EXTT15=
EXTT16=
EXTT17=
EXTT18=
EXTT19=
EXTT20=
EXTT21=
EXTT22=
EXTT23=
PLAYORDER=
